<svg width="124" height="40" viewBox="0 0 124 40" fill="none" xmlns="http://www.w3.org/2000/svg">
  <path
    d="M75.6433 14.6248C74.9098 13.8657 74.0106 13.4852 72.9457 13.4852C71.7468 13.4852 70.7535 13.8657 69.9679 14.6248C69.1822 15.3838 68.7894 16.3628 68.7894 17.5617V31.2285H63.8342V17.5617C63.8342 16.3628 63.4679 15.3838 62.7355 14.6248C62.002 13.8657 61.0902 13.4852 59.9981 13.4852C58.8255 13.4852 57.8534 13.8657 57.0809 14.6248C56.3079 15.3838 55.9221 16.3628 55.9221 17.5617V31.2285H50.9668V9.32991H55.9221V11.3677C56.5876 10.5687 57.3805 9.94267 58.2995 9.48949C59.219 9.03734 60.1977 8.81024 61.237 8.81024C62.4358 8.81024 63.5406 9.07009 64.5533 9.58975C65.566 10.1084 66.4182 10.848 67.1107 11.8075C67.8841 10.8756 68.8825 10.1432 70.108 9.60919C71.3335 9.07725 72.6122 8.81024 73.9441 8.81024C75.4366 8.81024 76.7685 9.17647 77.9409 9.90891C79.1132 10.6424 80.0318 11.6674 80.6977 12.986C81.3637 14.3046 81.6972 15.8176 81.6972 17.5218V31.2285H76.7419V17.5617C76.7419 16.3628 76.3757 15.3838 75.6433 14.6248Z"
    fill="#225559" />
  <path
    d="M85.373 9.32991H90.2884V12.007C91.0075 10.9677 91.8801 10.1688 92.9062 9.60919C93.9312 9.04963 95.0575 8.77036 96.283 8.77036C96.7627 8.77036 97.3479 8.85013 98.0414 9.00972V13.6458H96.1234C94.3905 13.6458 92.9921 14.1655 91.9272 15.2038C90.8612 16.2431 90.3293 17.7888 90.3293 19.8399V31.2285H85.373V9.32991Z"
    fill="#225559" />
  <path
    d="M108.312 14.406C107.326 14.9921 106.548 15.7983 105.975 16.8233C105.401 17.8493 105.115 19.0012 105.115 20.2799C105.115 21.5596 105.401 22.7115 105.975 23.7375C106.548 24.7625 107.326 25.5686 108.312 26.1547C109.297 26.7409 110.403 27.0335 111.629 27.0335C112.854 27.0335 113.967 26.7409 114.966 26.1547C115.965 25.5686 116.751 24.7625 117.323 23.7375C117.896 22.7115 118.183 21.5596 118.183 20.2799C118.183 19.0012 117.896 17.8493 117.323 16.8233C116.751 15.7983 115.965 14.9921 114.966 14.406C113.967 13.8209 112.854 13.5273 111.629 13.5273C110.403 13.5273 109.297 13.8209 108.312 14.406ZM100.16 9.33106H105.036V11.5683C105.941 10.663 106.994 9.97041 108.192 9.49064C109.391 9.01087 110.71 8.77151 112.148 8.77151C114.227 8.77151 116.105 9.27786 117.783 10.2896C119.461 11.3023 120.78 12.6874 121.74 14.4459C122.698 16.2044 123.178 18.149 123.178 20.2799C123.178 22.4117 122.698 24.3564 121.74 26.1148C120.78 27.8733 119.461 29.2584 117.783 30.2712C116.105 31.2829 114.227 31.7892 112.148 31.7892C109.297 31.7892 106.939 30.8573 105.076 28.9914V36.4785H100.16V9.33106Z"
    fill="#225559" />
  <path
    d="M26.5253 -9.15527e-05C26.4114 14.5772 14.5753 26.4139 0 26.5254V13.4744H13.4725V-9.15527e-05H26.5253Z"
    fill="#5EC7A4" />
  <path
    d="M39.9999 13.4745V26.5255H26.5274V40H13.4746C13.5885 25.4248 25.4246 13.5881 39.9999 13.4745Z"
    fill="#5EC7A4" />
</svg>