<svg width="1027" height="238" viewBox="0 0 1027 238" fill="none" xmlns="http://www.w3.org/2000/svg">
<path d="M108.486 16.8764C89.1123 18.4741 71.9863 24.6323 56.9433 35.3838C35.9822 50.3629 21.6004 72.432 16.2775 97.7631C12.6075 115.272 13.7317 134.179 19.4514 151.288C28.8739 179.415 50.4632 202.349 77.9044 213.334C90.4347 218.361 101.907 220.525 115.926 220.491C124.091 220.458 128.754 219.959 136.589 218.328C159.037 213.668 180.164 200.552 194.646 182.245C197.125 179.083 199.703 175.421 199.506 175.288C199.472 175.254 198.084 174.722 196.43 174.123C182.313 168.831 170.344 157.912 163.865 144.298C160.691 137.64 158.872 130.917 158.211 123.128C157.153 111.144 160.327 98.096 166.774 87.6106C173.717 76.3598 185.057 67.0728 196.828 63.0118C198.348 62.5125 199.572 61.98 199.572 61.8468C199.572 61.7137 198.447 60.0826 197.059 58.1852C177.585 31.7555 147.069 16.3438 114.769 16.71C112.057 16.7432 109.214 16.8098 108.486 16.8764ZM121.744 80.3875C140.226 83.6495 153.946 99.8269 153.946 118.368C153.946 129.02 150.078 138.406 142.573 145.995C131.629 157.046 115.496 160.375 101.081 154.551C82.3347 146.994 72.4823 125.691 78.8962 106.517C83.3926 93.0031 94.8981 82.9506 108.85 80.4207C112.354 79.7883 118.174 79.7883 121.744 80.3875ZM59.8197 100.992C69.7381 104.121 75.2925 115.006 71.8541 124.592C70.8292 127.422 69.705 129.319 67.8536 131.249C60.8777 138.54 49.5706 138.906 42.2969 132.015C33.6679 123.894 34.6927 110.246 44.446 103.455C48.744 100.459 54.9266 99.4607 59.8197 100.992Z" fill="#007FFF"/>
<path d="M307.34 60.0825C290.748 62.6456 276.231 71.9325 267.08 85.8464C247.527 115.605 258.127 155.615 289.86 171.626C315.372 184.508 346.776 176.486 363.432 152.886C364.88 150.855 364.912 150.722 364.354 150.289C363.991 150.057 359.054 146.162 353.358 141.668C347.663 137.174 342.923 133.48 342.825 133.48C342.726 133.48 342.133 134.345 341.541 135.377C339.072 139.538 333.279 144.631 328.539 146.794C322.251 149.691 314.68 150.356 307.8 148.625C304.706 147.826 298.879 144.731 296.147 142.467C291.704 138.706 288.247 133.446 286.371 127.488C285.613 125.125 285.449 123.86 285.285 119.965C285.053 112.942 286.206 108.282 289.563 102.49C291.539 99.0945 296.444 94.168 299.933 92.071C313.89 83.716 331.567 87.5773 340.883 100.959C341.738 102.223 342.528 103.422 342.595 103.621C342.693 103.921 364.222 87.3443 364.682 86.612C365.011 86.0462 360.37 80.2209 356.683 76.5594C351.911 71.7994 347.927 68.9034 342.002 65.9076C336.834 63.278 332.127 61.6469 326.827 60.5485C322.186 59.6165 311.947 59.3834 307.34 60.0825Z" fill="#007FFF"/>
<path d="M532.665 60.0826C521.859 61.8135 512.239 66.1074 504.101 72.7981C500.839 75.4943 495.732 81.0199 493.228 84.5483C490.462 88.4761 487.068 95.2666 485.585 99.8602C480.742 114.74 481.797 130.817 488.518 144.631C496.095 160.175 509.932 171.56 526.406 175.854C532.039 177.318 534.312 177.585 541.066 177.585C547.787 177.585 549.928 177.318 555.727 175.854C569.828 172.326 582.907 162.639 590.715 149.957C599.874 135.144 602.081 116.969 596.744 100.393C590.056 79.6551 572.76 64.4098 551.279 60.3489C547.359 59.6166 536.552 59.4501 532.665 60.0826ZM545.678 88.0434C557.803 89.9074 567.29 98.4954 570.783 110.712C571.442 112.975 571.541 114.074 571.508 118.668C571.508 124.925 570.948 127.488 568.575 132.315C562.908 143.898 550.653 150.723 537.903 149.424C524.099 147.992 512.864 137.174 510.723 123.161C510.228 119.866 510.525 114.04 511.415 110.678C514.281 99.6937 523.539 90.7397 534.477 88.4095C539.089 87.4443 541.329 87.3777 545.678 88.0434Z" fill="#007FFF"/>
<path d="M392.346 118.568L392.445 174.922L429.903 175.022L467.329 175.088V160.941V146.794H443.732H420.137V104.52V62.2461H406.209H392.281L392.346 118.568Z" fill="#007FFF"/>
<path d="M626.112 95.6992C626.112 117.735 626.244 130.284 626.474 132.548C627.625 143.499 632.362 153.851 639.928 161.874C650.091 172.691 663.776 178.317 678.38 177.651C691.373 177.052 702.524 172.059 711.636 162.805C718.906 155.415 723.346 146.994 725.518 136.575C726.275 132.98 726.275 132.914 726.373 97.5965L726.471 62.2461H712.459H698.478V96.1319C698.478 128.786 698.446 130.151 697.82 132.614C694.334 146.462 679.006 153.585 666.374 147.26C660.651 144.397 656.308 138.939 654.697 132.548C654.105 130.151 654.071 128.554 654.071 96.1319V62.2461H640.092H626.112V95.6992Z" fill="#007FFF"/>
<path d="M761.487 118.668V175.122L788.073 174.988C813.573 174.855 814.789 174.822 818.376 174.123C838.875 170.228 855.391 155.615 861.643 135.877C863.847 128.886 864.769 121.031 864.144 114.174C863.486 106.651 861.774 100.393 858.714 94.035C850.95 77.8909 836.473 66.7399 818.639 63.1783C815.053 62.4792 814.198 62.446 788.238 62.3128L761.487 62.2129V118.668ZM814.395 91.0725C827.161 93.7354 836.505 105.386 836.505 118.7C836.505 131.383 828.181 142.268 815.612 145.995C813.934 146.495 811.828 146.595 801.398 146.694L789.125 146.861V118.7V90.5399H800.477C809.591 90.5399 812.355 90.6397 814.395 91.0725Z" fill="#007FFF"/>
<path d="M890.876 89.0419V115.837H896.417H901.959L902.024 97.9627L902.121 80.0877L909.749 89.3747C913.955 94.5009 917.639 98.9613 917.932 99.2942C918.453 99.8601 918.877 99.4273 926.603 90.0404L934.719 80.1542L934.882 97.8961L935.046 115.671L940.522 115.771L945.966 115.837V89.0419V62.2461H940.522H935.046L926.896 72.1988C922.43 77.6911 918.616 82.1515 918.421 82.085C918.258 82.0516 914.444 77.5579 909.978 72.1322L901.861 62.2461H896.352H890.876V89.0419Z" fill="#007FFF"/>
<path d="M964.052 89.0419V115.837H969.573H975.095L975.16 99.3607L975.258 82.8838L988.738 99.3607L1002.22 115.837H1006.54H1010.83V89.0419V62.2461H1005.3H999.781L999.717 78.6896L999.62 95.1667L986.14 78.6896L972.659 62.2461H968.372H964.052V89.0419Z" fill="#007FFF"/>
</svg>
