<svg width="1012" height="371" viewBox="0 0 1012 371" fill="none" xmlns="http://www.w3.org/2000/svg">
<path d="M467.883 27H25.8731C25.0088 27 24.1431 27.0535 23.307 27.2728C16.7355 28.9967 9.9386 35.4596 5.27436 41.0236C2.32623 44.5405 1.01782 49.0401 0.983699 53.6305C0.316355 143.397 -0.874465 311.884 1.03584 321.444C2.41051 328.324 9.17289 335.687 14.9987 340.668C18.532 343.688 23.1311 345 27.7782 345H409.037L487.499 266.481C488.805 195.16 491.03 50.163 489.46 40.7407C487.891 31.3185 474.423 27.6543 467.883 27Z" fill="url(#paint0_linear_111_14)"/>
<path d="M143.107 130.541C143.107 135.921 142.856 141.113 142.354 146.118H86.8605C89.3687 156.377 96.5797 161.507 108.494 161.507C116.52 161.507 124.86 159.818 133.513 156.44L138.404 181.776C128.998 186.03 117.837 188.157 104.919 188.157C89.4941 188.157 76.9532 183.528 67.2967 174.269C57.7656 165.01 53 152.749 53 137.485C53 122.345 57.452 110.147 66.3561 100.888C75.3856 91.6293 86.9859 87 101.157 87C113.447 87 123.48 91.0037 131.255 99.0112C139.156 107.019 143.107 117.528 143.107 130.541ZM112.632 127.35V125.849C112.632 121.595 111.566 118.279 109.434 115.902C107.302 113.525 104.543 112.336 101.157 112.336C97.1441 112.336 93.8207 113.65 91.1871 116.277C88.6789 118.905 86.9859 122.596 86.1081 127.35H112.632ZM197.295 188.157C184.378 188.157 174.471 185.342 167.573 179.711C160.676 174.081 157.227 166.762 157.227 157.753C157.227 148.87 160.676 141.676 167.573 136.171C174.471 130.666 183.751 127.913 195.414 127.913C200.681 127.913 205.321 128.226 209.334 128.852V127.35C209.334 117.966 203.879 113.275 192.969 113.275C183.688 113.275 175.411 114.713 168.138 117.591L162.682 92.8179C172.59 88.9393 183.939 87 196.731 87C211.153 87 222.001 90.6909 229.275 98.0728C236.674 105.455 240.373 115.902 240.373 129.415V180.275C228.961 185.529 214.602 188.157 197.295 188.157ZM209.334 164.322V148.37C205.948 147.619 202.813 147.244 199.929 147.244C196.668 147.244 193.972 148.057 191.84 149.683C189.833 151.185 188.83 153.437 188.83 156.44C188.83 162.57 192.78 165.636 200.681 165.636C204.318 165.636 207.203 165.198 209.334 164.322ZM326.831 118.717C314.917 115.089 305.825 113.275 299.554 113.275C293.033 113.275 289.772 114.651 289.772 117.403C289.772 119.03 290.588 120.281 292.218 121.157C293.848 122.033 297.422 123.221 302.94 124.723C314.603 127.725 322.88 131.542 327.771 136.171C332.662 140.8 335.108 147.494 335.108 156.252C335.108 166.637 331.283 174.582 323.633 180.087C316.108 185.467 306.013 188.157 293.347 188.157C280.053 188.157 268.327 185.967 258.169 181.588L262.308 155.689C272.466 159.818 282.624 161.882 292.782 161.882C300.181 161.882 303.881 160.256 303.881 157.003C303.881 154.876 302.878 153.374 300.871 152.499C298.99 151.498 294.099 149.934 286.198 147.807C276.793 145.429 269.832 141.926 265.318 137.297C260.803 132.542 258.545 126.162 258.545 118.154C258.545 108.27 261.931 100.638 268.704 95.2577C275.476 89.7526 284.881 87 296.921 87C308.835 87 319.871 88.9393 330.029 92.8179L326.831 118.717ZM352.854 221L348.151 193.975C353.293 193.474 358.748 191.723 364.517 188.72C370.411 185.717 374.487 182.339 376.744 178.585C365.959 164.697 357.933 150.935 352.666 137.297C347.524 123.534 344.514 107.519 343.636 89.2521H375.992C375.992 113.9 381.76 135.733 393.298 154.751C397.311 145.492 400.07 136.171 401.575 126.787C403.205 117.403 404.021 104.892 404.021 89.2521H436C434.62 120.031 426.469 148.62 411.545 175.02C395.869 202.545 376.305 217.872 352.854 221Z" fill="white"/>
<path d="M106 244.917C168.885 290.285 245.246 349.459 380 239" stroke="white" stroke-width="4" stroke-linecap="round"/>
<path d="M606.907 158.759C606.464 153.875 604.481 150.079 600.961 147.37C597.488 144.617 592.522 143.241 586.062 143.241C581.785 143.241 578.222 143.796 575.372 144.906C572.522 146.016 570.382 147.548 568.959 149.502C567.532 151.411 566.795 153.609 566.752 156.095C566.662 158.138 567.066 159.936 567.956 161.49C568.893 163.044 570.225 164.421 571.966 165.619C573.745 166.774 575.886 167.795 578.379 168.683C580.872 169.571 583.678 170.348 586.799 171.014L598.558 173.678C605.328 175.144 611.298 177.097 616.464 179.54C621.674 181.982 626.04 184.89 629.56 188.265C633.124 191.639 635.816 195.524 637.643 199.92C639.47 204.316 640.407 209.245 640.45 214.706C640.407 223.32 638.223 230.713 633.904 236.885C629.58 243.057 623.367 247.785 615.261 251.071C607.198 254.357 597.464 256 586.062 256C574.616 256 564.636 254.291 556.129 250.872C547.619 247.453 541.007 242.257 536.283 235.286C531.564 228.315 529.133 219.502 529 208.845H560.673C560.939 213.241 562.119 216.904 564.212 219.834C566.305 222.765 569.179 224.985 572.832 226.495C576.528 228.004 580.805 228.759 585.662 228.759C590.115 228.759 593.901 228.16 597.022 226.961C600.181 225.762 602.611 224.097 604.305 221.966C605.994 219.834 606.864 217.392 606.907 214.64C606.864 212.064 606.061 209.866 604.505 208.046C602.944 206.181 600.538 204.582 597.288 203.25C594.082 201.874 589.981 200.608 584.991 199.454L570.696 196.124C558.846 193.415 549.513 189.042 542.7 183.003C535.883 176.92 532.497 168.706 532.544 158.36C532.497 149.924 534.77 142.53 539.356 136.181C543.947 129.831 550.293 124.881 558.399 121.329C566.509 117.776 575.752 116 586.128 116C596.731 116 605.928 117.799 613.724 121.395C621.564 124.947 627.644 129.942 631.963 136.381C636.287 142.819 638.49 150.279 638.58 158.759H606.907ZM690.228 117.865V254.268H657.156V117.865H690.228ZM710.992 117.865H751.951L786.692 202.318H788.299L823.041 117.865H864V254.268H831.794V170.481H830.658L797.786 253.402H777.206L744.334 170.015H743.197V254.268H710.992V117.865Z" fill="black"/>
<defs>
<linearGradient id="paint0_linear_111_14" x1="245" y1="27" x2="245" y2="345" gradientUnits="userSpaceOnUse">
<stop stop-color="#F3933F"/>
<stop offset="1" stop-color="#DB0F45"/>
</linearGradient>
</defs>
</svg>
