<svg width="960" height="312" viewBox="0 0 960 312" fill="none" xmlns="http://www.w3.org/2000/svg">
<mask id="mask0_111_79" style="mask-type:luminance" maskUnits="userSpaceOnUse" x="0" y="1" width="960" height="311">
<path d="M0 1H960V311.723H0V1Z" fill="white"/>
</mask>
<g mask="url(#mask0_111_79)">
<path d="M164.189 210.842L183.619 264.371H201.979V176.584L170.002 195.285C167.352 196.819 165.313 199.219 164.227 202.082C163.171 204.902 163.157 208.012 164.189 210.842Z" fill="#1E1F2A"/>
<path d="M263.237 133.302L236.727 125.521C238.04 120.231 238.706 114.801 238.709 109.35V53.0558C238.704 48.0245 237.578 43.0576 235.411 38.5166C233.213 33.9165 230.044 29.8472 226.123 26.5886L207.917 11.4206C204.571 8.63659 200.285 7.10059 195.85 7.10059H146.851C143.261 7.10059 139.795 8.34859 137.107 10.619C134.439 12.842 132.698 15.9817 132.226 19.4222L129.471 40.3214C129.423 40.6982 129.454 41.0807 129.559 41.4455C129.665 41.8103 129.844 42.1497 130.085 42.443C130.586 43.0513 131.304 43.4419 132.087 43.5326L181.872 49.5806L136.426 52.6622C135.643 52.7217 134.913 53.079 134.386 53.6606C134.132 53.9415 133.938 54.271 133.815 54.629C133.692 54.987 133.643 55.3663 133.671 55.7438L133.891 58.7678C134.021 60.5102 134.832 62.1374 136.162 63.3278C137.491 64.5182 139.243 65.1902 141.067 65.1998L183.759 65.459V72.659C183.759 75.4046 182.871 78.0782 181.21 80.3102C179.517 82.5653 177.17 84.2446 174.49 85.1198L143.962 95.2094C126.442 101.003 111.864 112.921 103.152 128.565L80.4577 169.307C77.8993 173.864 74.1494 177.638 69.6098 180.227C64.9868 182.87 59.7528 184.259 54.4274 184.254H3.83055C3.00964 184.256 2.21146 184.524 1.55535 185.017C0.915148 185.497 0.457943 186.181 0.259351 186.957C0.0667432 187.723 0.148245 188.533 0.489751 189.246C0.840374 189.973 1.4253 190.562 2.15055 190.917L53.957 216.251C61.6257 219.991 70.0347 221.966 78.5666 222.03C87.101 222.106 95.5442 220.271 103.277 216.659L110.314 213.371V264.347H128.674L159.163 190.441L197.727 172.389C210.879 166.23 221.799 156.453 229.095 144.309L217.666 139.926H246.312V147.145H268.138V139.456C268.127 138.052 267.643 136.692 266.765 135.597C265.864 134.475 264.628 133.67 263.237 133.302Z" fill="#1E1F2A"/>
<path d="M184.642 11.824C181.018 6.9136 174.658 3.3568 165.884 1L164.712 2.9488C166.791 4.096 166.887 4.9504 165.73 6.8992C163.402 10.7584 161.727 16.288 168.624 20.0704C173.871 22.9648 179.136 21.5056 184.008 14.4448C185.016 14.5072 185.986 14.7904 186.86 15.2752C187.733 15.7552 188.477 16.4224 189.034 17.224C185.084 24.784 186.394 29.8768 191.626 32.776C198.509 36.5824 202.714 32.4208 205.023 28.576C206.194 26.6368 207.02 26.3104 209.151 27.4576L210.327 25.5088C203.813 19.4224 197.41 15.9184 191.156 15.3808C190.379 14.3805 189.403 13.5519 188.29 12.9472C187.161 12.3324 185.921 11.9504 184.642 11.824ZM283.853 170.939H275.439V139.955H267.989V170.939H246.159V139.955H238.709V170.939H230.295C227.68 170.929 225.162 171.926 223.263 173.723C222.349 174.588 221.619 175.63 221.119 176.785C220.619 177.94 220.359 179.185 220.354 180.443V237.309C220.354 239.829 221.4 242.253 223.263 244.029C225.13 245.814 227.66 246.813 230.295 246.813H283.853C286.468 246.823 288.986 245.826 290.885 244.029C292.748 242.253 293.799 239.829 293.799 237.309V180.448C293.799 177.923 292.748 175.504 290.885 173.728C288.987 171.929 286.468 170.931 283.853 170.939ZM240.831 250.912H236.602C233.847 250.912 231.74 253.917 231.74 257.642C231.74 261.366 233.852 264.347 236.602 264.347H240.845C243.596 264.347 245.703 261.328 245.703 257.618C245.703 253.902 243.485 250.912 240.831 250.912ZM283.618 250.912H278.016C276.639 250.912 275.439 253.917 275.439 257.642C275.439 261.366 276.581 264.371 278.016 264.371H283.618C284.996 264.371 286.196 261.357 286.196 257.642C286.196 253.926 285.053 250.912 283.618 250.912ZM418.378 122.32H368.852V264.376H418.378V122.32Z" fill="#FF7930"/>
<path d="M559.431 262.907C544.237 266.741 528.632 268.704 512.962 268.754C475.987 268.754 455.506 247.422 455.506 208.547V74.9825H505.085V122.387H548.645V164.762H505.018V203.93C505.018 218.834 512.055 226.432 526.114 226.432C535.726 226.189 545.317 225.407 554.842 224.09L559.431 262.907ZM635.232 264.342H585.653V127.878C618.725 122.022 652.277 118.994 685.911 118.821V164.709C668.794 164.709 651.989 165.29 635.175 166.461L635.232 264.342ZM760.253 122.32H710.727V264.376H760.253V122.32ZM734.607 101.608C749.991 101.608 762.456 89.6848 762.456 74.9825C762.456 60.2753 749.991 48.3521 734.607 48.3521C719.227 48.3521 706.762 60.2753 706.762 74.9825C706.762 89.6848 719.227 101.608 734.607 101.608ZM887.861 266.714C897.327 266.843 906.725 265.149 915.495 261.736C924.2 258.362 932.154 253.302 938.899 246.846C952.963 233.675 960 215.57 960 192.774C958.474 147.174 930.955 118.24 885.73 118.24C863.693 118.24 834.375 120.573 797.381 125.248V311.752H846.96V265.278C857.607 266.123 871.349 266.718 887.861 266.718V266.714ZM846.903 157.984C858.514 157.115 868.608 156.52 877.205 156.52C900.739 156.52 912.351 171.141 912.351 193.643C912.351 213.227 898.579 227.882 879.034 227.882C868.302 227.971 857.578 227.285 846.946 225.827L846.903 157.984Z" fill="#1E1F2A"/>
<path d="M393.6 59.5119C385.862 46.0767 362.654 49.2783 362.654 68.1327C362.654 86.9919 393.6 98.6607 393.6 98.6607C393.6 98.6607 424.545 86.9919 424.545 68.1327C424.545 49.2783 401.342 46.0815 393.6 59.5119Z" fill="#FF7930"/>
</g>
</svg>
