<svg width="1012" height="329" viewBox="0 0 1012 329" fill="none" xmlns="http://www.w3.org/2000/svg">
<path d="M621.467 120.157C615.447 113.919 608.058 110.8 599.306 110.8C589.457 110.8 581.301 113.919 574.846 120.157C568.39 126.395 565.163 134.439 565.163 144.289V256.572H524.451V144.289C524.451 134.439 521.44 126.395 515.422 120.157C509.401 113.919 501.905 110.8 492.934 110.8C483.3 110.8 475.312 113.919 468.965 120.157C462.616 126.395 459.446 134.439 459.446 144.289V256.572H418.733V76.6547H459.446V93.3989C464.913 86.8334 471.428 81.6932 478.978 77.9684C486.532 74.2494 494.574 72.387 503.111 72.387C512.96 72.387 522.04 74.5217 530.361 78.7895C538.677 83.0573 545.679 89.1312 551.371 97.0103H551.373C557.72 89.3514 565.928 83.3346 575.995 78.9542C586.06 74.578 596.567 72.387 607.514 72.387C619.771 72.387 630.712 75.3991 640.347 81.4159C649.976 87.4385 657.527 95.8623 663 106.696C668.469 117.531 671.208 129.955 671.208 143.959V256.572H630.496V144.289C630.496 134.439 627.486 126.395 621.467 120.157Z" fill="#0E595B"/>
<path d="M701.408 76.6547H741.792V98.6517C747.7 90.1153 754.867 83.5506 763.295 78.9534C771.718 74.357 780.969 72.0583 791.039 72.0583C794.979 72.0583 799.791 72.7147 805.486 74.0283V112.112H789.726C775.494 112.112 764.003 116.382 755.251 124.918C746.496 133.453 742.12 146.15 742.12 163.002V256.572H701.408V76.6547Z" fill="#0E595B"/>
<path d="M889.866 118.351C881.766 123.169 875.365 129.792 870.66 138.215C865.949 146.643 863.603 156.107 863.603 166.613C863.603 177.12 865.949 186.59 870.66 195.013C875.365 203.442 881.766 210.064 889.866 214.875C897.962 219.692 907.045 222.099 917.116 222.099C927.181 222.099 936.322 219.692 944.531 214.875C952.739 210.064 959.192 203.442 963.901 195.013C968.606 186.59 970.961 177.12 970.961 166.613C970.961 156.107 968.606 146.643 963.901 138.215C959.192 129.792 952.739 123.169 944.531 118.351C936.322 113.54 927.181 111.129 917.116 111.129C907.045 111.129 897.962 113.54 889.866 118.351ZM822.89 76.6544H862.944V95.0408C870.382 87.602 879.033 81.908 888.881 77.968C898.73 74.028 909.565 72.058 921.385 72.058C938.458 72.058 953.888 76.219 967.677 84.5344C981.465 92.8557 992.3 104.234 1000.18 118.679C1008.06 133.126 1012 149.106 1012 166.613C1012 184.127 1008.06 200.101 1000.18 214.547C992.3 228.994 981.465 240.376 967.677 248.692C953.888 257.007 938.458 261.168 921.385 261.168C897.962 261.168 878.592 253.509 863.273 238.186V299.694H822.89V76.6544Z" fill="#0E595B"/>
<path d="M217.926 4.07498e-05C216.991 119.764 119.748 217.008 0 217.926V110.704H110.687V4.07498e-05H217.926Z" fill="#1DDBB7"/>
<path d="M328.63 110.704V217.926H217.943V328.63H110.704C111.64 208.882 208.882 111.639 328.63 110.704Z" fill="#1DDBB7"/>
</svg>
