<svg width="545" height="290" viewBox="0 0 545 290" fill="none" xmlns="http://www.w3.org/2000/svg">
<path d="M491.226 0H422.825L410.681 72.1172H500.718L540.222 0H491.226Z" fill="#B2D234"/>
<path d="M68.4005 72.1172L56.3956 144.381L44.251 216.498H112.791L124.796 144.381L136.94 72.1172H68.4005Z" fill="#50B748"/>
<path d="M205.339 72.1172L193.335 144.381L181.19 216.498H249.73L261.735 144.381L273.74 72.1172H205.339Z" fill="#7FC241"/>
<path d="M398.677 144.381L410.682 72.1172H342.281L330.137 144.381L326.368 167.046C321.761 194.422 339.21 216.498 365.035 216.498H476.569L516.074 144.381H398.677Z" fill="#99CA3C"/>
<path d="M68.4003 72.1172H0L39.5046 0H80.5449L68.4003 72.1172Z" fill="#50B748"/>
<path d="M136.94 72.1172H68.4004L80.5451 0H148.945L136.94 72.1172Z" fill="#2CA449"/>
<path d="M205.341 72.1172H136.94L148.945 0H217.485L205.341 72.1172Z" fill="#7FC241"/>
<path d="M273.74 72.1172H205.34L217.485 0H285.885L273.74 72.1172Z" fill="#50B748"/>
<path d="M342.28 72.1172H273.74L285.885 0H354.285L342.28 72.1172Z" fill="#99CA3C"/>
<path d="M410.68 72.1172H342.279L346.049 49.4517C350.655 22.2238 375.363 0 401.327 0H422.824L410.68 72.1172Z" fill="#7FC241"/>
<path d="M198.5 255.353H189.008L189.287 253.293H210.505L210.226 255.353H200.594L196.546 283.759H194.452L198.5 255.353ZM214.274 261.535H216.228L215.251 267.863C217.345 263.89 221.114 260.946 225.162 261.24L224.743 263.595H224.604C219.997 263.595 215.391 267.422 214.274 274.634L213.018 283.759H211.063L214.274 261.535ZM243.867 275.37L244.286 272.867C242.611 272.426 240.517 271.837 237.586 271.837C233.398 271.837 230.746 274.045 230.187 277.136C229.769 280.373 232.281 282.287 235.353 282.287C239.401 282.287 243.309 279.49 243.867 275.37ZM228.233 277.136C228.792 272.573 232.84 269.924 238.004 269.924C240.797 269.924 242.611 270.365 244.565 270.954L244.705 269.924C245.263 265.508 243.17 263.154 238.982 263.154C236.609 263.154 234.515 263.89 232.421 264.92L232.002 263.154C234.375 261.976 236.609 261.24 239.4 261.24C242.193 261.24 244.147 261.976 245.403 263.595C246.52 265.067 246.939 267.128 246.52 269.924L244.565 283.759H242.751L243.17 280.079C241.495 282.139 238.702 284.2 234.934 284.2C231.164 284.2 227.535 281.845 228.233 277.136ZM257.687 261.535H259.641L259.083 265.656C260.758 263.006 263.41 260.946 267.04 260.946C272.065 260.946 274.438 264.772 273.74 270.218L271.786 283.759H269.832L271.786 270.513C272.344 265.95 270.53 263.006 266.481 263.006C262.573 263.006 258.943 266.244 258.385 270.954L256.57 283.759H254.616L257.687 261.535ZM280.441 280.962L281.837 279.196C283.791 281.109 286.024 282.139 288.677 282.139C291.329 282.139 293.702 280.521 294.121 277.872C294.4 275.222 292.027 274.339 289.375 273.456C286.304 272.426 282.814 271.249 283.372 267.274C283.93 263.595 287.002 261.093 290.91 261.093C293.283 261.093 295.936 261.976 297.61 263.595L296.354 265.361C294.679 263.89 292.725 263.154 290.491 263.154C287.839 263.154 285.745 264.772 285.326 266.98C285.047 269.483 287.56 270.513 290.352 271.395C293.423 272.426 296.633 273.75 296.075 277.724C295.517 281.698 292.027 284.2 288.258 284.2C285.326 284.2 282.256 282.875 280.441 280.962ZM305.846 278.018L307.941 263.448H305.009L305.288 261.535H308.22L309.336 254.47H311.29L310.174 261.535H317.293L317.014 263.448H309.895L307.941 277.872C307.382 280.962 308.918 282.139 311.29 282.139C312.268 282.139 313.105 281.845 314.362 281.404L314.083 283.317C312.966 283.906 311.988 284.2 310.732 284.2C307.522 284.2 305.288 282.287 305.846 278.018ZM339.349 271.543C339.628 267.128 337.953 263.006 333.346 263.006C329.298 263.006 325.668 266.686 324.691 271.543H339.349ZM322.458 272.573C323.435 266.097 328.182 260.946 333.625 260.946C339.349 260.946 342.141 266.097 341.164 272.573C341.164 273.015 341.164 273.161 341.024 273.456H324.412C323.993 279.049 327.065 282.287 330.973 282.287C334.184 282.287 336.557 280.668 338.371 278.754L339.628 280.079C337.115 282.581 334.463 284.2 330.694 284.2C325.389 284.2 321.481 279.638 322.458 272.573ZM353.168 251.968H355.123L350.516 283.759H348.562L353.168 251.968ZM378.295 271.543C378.574 267.128 376.899 263.006 372.292 263.006C368.245 263.006 364.615 266.686 363.638 271.543H378.295ZM361.405 272.573C362.382 266.097 367.128 260.946 372.572 260.946C378.295 260.946 381.087 266.097 380.11 272.573C380.11 273.015 380.11 273.161 379.97 273.456H363.359C362.94 279.049 366.011 282.287 369.919 282.287C373.13 282.287 375.503 280.668 377.318 278.754L378.574 280.079C376.061 282.581 373.409 284.2 369.64 284.2C364.336 284.2 360.427 279.638 361.405 272.573ZM387.508 272.573C388.346 266.244 393.65 260.946 399.373 260.946C403.142 260.946 405.376 262.86 406.772 265.067L405.236 266.686C403.84 264.626 402.026 263.006 399.094 263.006C394.627 263.006 390.3 267.274 389.602 272.573C388.764 278.018 391.835 282.287 396.442 282.287C399.373 282.287 401.747 280.521 403.701 278.46L404.957 279.932C402.444 282.434 399.792 284.2 396.023 284.2C390.3 284.2 386.531 279.049 387.508 272.573ZM431.061 272.573C431.759 267.274 428.688 263.006 424.081 263.006C419.614 263.006 415.287 267.274 414.589 272.573C413.752 278.018 416.822 282.287 421.429 282.287C425.896 282.287 430.223 277.872 431.061 272.573ZM412.495 272.573C413.333 266.392 418.497 260.946 424.5 260.946C430.363 260.946 433.992 266.244 433.155 272.573C432.177 278.902 427.013 284.2 421.01 284.2C415.147 284.2 411.518 278.902 412.495 272.573ZM443.624 261.535H445.578L445.02 265.508C446.695 263.154 448.789 260.946 452.418 260.946C455.908 260.946 457.723 263.154 458.56 265.803C460.096 263.301 462.609 260.946 466.378 260.946C471.263 260.946 473.637 264.626 472.799 270.218L470.844 283.759H469.03L470.844 270.513C471.542 265.803 469.728 263.006 465.959 263.006C462.609 263.006 459.258 265.803 458.56 270.807L456.746 283.759H454.792L456.606 270.365C457.304 265.803 455.49 263.006 451.86 263.006C448.231 263.006 444.88 266.392 444.322 270.954L442.507 283.759H440.553L443.624 261.535Z" fill="white" stroke="black" stroke-width="0.375005"/>
</svg>
