<svg viewBox="0 0 200 65" fill="none" xmlns="http://www.w3.org/2000/svg" class="h-[26px] w-[80px]"><g clip-path="url(#LogoHorizontalBlackIcon_svg__clip0_269_14950)"><path d="M34.206 43.717l4.048 11.152h3.825V36.58l-6.662 3.896a2.772 2.772 0 00-1.203 1.416 2.63 2.63 0 00-.008 1.824z" fill="#1E1F2A"></path><path d="M54.841 27.563l-5.523-1.621a14.01 14.01 0 00.413-3.369V10.845a7.05 7.05 0 00-.687-3.029 7.354 7.354 0 00-1.935-2.485l-3.793-3.16c-.697-.58-1.59-.9-2.514-.9H30.594c-.748 0-1.47.26-2.03.733a2.901 2.901 0 00-1.017 1.834l-.574 4.354a.582.582 0 00.128.442.635.635 0 00.417.227l10.372 1.26-9.468.642a.639.639 0 00-.425.208.584.584 0 00-.149.434l.046.63c.027.363.196.702.473.95.277.248.642.388 1.022.39l8.894.054v1.5c0 .572-.185 1.129-.531 1.594a2.861 2.861 0 01-1.4 1.002l-6.36 2.102c-3.65 1.207-6.687 3.69-8.502 6.949l-4.728 8.488a6.001 6.001 0 01-2.26 2.275 6.361 6.361 0 01-3.163.839H.798a.792.792 0 00-.474.159.732.732 0 00-.27.404.706.706 0 00.048.477.75.75 0 00.346.348l10.793 5.278a11.902 11.902 0 005.127 1.204 11.913 11.913 0 005.148-1.119l1.466-.685v10.62h3.825l6.352-15.397 8.034-3.761c2.74-1.283 5.015-3.32 6.535-5.85l-2.381-.913h5.968v1.504h4.547v-1.602a1.301 1.301 0 00-.286-.804 1.403 1.403 0 00-.735-.478z" fill="#1E1F2A"></path><path d="M38.467 2.255C37.712 1.232 36.387.491 34.559 0l-.244.406c.433.239.453.417.212.823-.485.804-.834 1.956.603 2.744 1.093.603 2.19.299 3.205-1.172.21.013.412.072.594.173.182.1.337.239.453.406-.823 1.575-.55 2.636.54 3.24 1.434.793 2.31-.074 2.791-.875.244-.404.416-.472.86-.233l.245-.406c-1.357-1.268-2.691-1.998-3.994-2.11a1.911 1.911 0 00-.597-.507 2 2 0 00-.76-.234zM59.136 35.404h-1.753v-6.455h-1.552v6.455h-4.548v-6.455h-1.552v6.455h-1.753a2.12 2.12 0 00-1.465.58 1.938 1.938 0 00-.606 1.4v11.847c0 .525.218 1.03.606 1.4.389.372.916.58 1.465.58h11.158a2.12 2.12 0 001.465-.58c.388-.37.607-.875.607-1.4V37.385c0-.526-.219-1.03-.607-1.4a2.12 2.12 0 00-1.465-.581zM50.173 52.065h-.881c-.574 0-1.013.626-1.013 1.402 0 .776.44 1.397 1.013 1.397h.884c.573 0 1.012-.629 1.012-1.402 0-.774-.462-1.397-1.015-1.397zM59.087 52.065H57.92c-.287 0-.537.626-.537 1.402 0 .776.238 1.402.537 1.402h1.167c.287 0 .537-.628.537-1.402 0-.774-.238-1.402-.537-1.402zM87.162 25.275H76.844V54.87h10.318V25.275z" fill="#FF7930"></path><path d="M116.548 54.564a40.091 40.091 0 01-9.681 1.218c-7.703 0-11.97-4.444-11.97-12.543V15.413h10.329v9.876h9.075v8.828h-9.089v8.16c0 3.105 1.466 4.688 4.395 4.688a53.59 53.59 0 005.985-.488l.956 8.087zM132.34 54.863h-10.329v-28.43c6.89-1.22 13.88-1.851 20.887-1.887v9.56c-3.566 0-7.067.121-10.57.365l.012 20.392zM158.386 25.275h-10.318V54.87h10.318V25.275zM153.043 20.96c3.205 0 5.802-2.484 5.802-5.547 0-3.064-2.597-5.548-5.802-5.548-3.204 0-5.801 2.484-5.801 5.548 0 3.063 2.597 5.547 5.801 5.547zM184.971 55.357c1.972.027 3.93-.326 5.757-1.037a14.776 14.776 0 004.876-3.102c2.93-2.744 4.396-6.516 4.396-11.265-.318-9.5-6.051-15.528-15.473-15.528-4.591 0-10.699.486-18.406 1.46V64.74h10.329v-9.682c2.218.176 5.081.3 8.521.3zm-8.533-22.652c2.419-.181 4.522-.305 6.313-.305 4.903 0 7.322 3.046 7.322 7.734 0 4.08-2.869 7.133-6.941 7.133a46.362 46.362 0 01-6.685-.428l-.009-14.134z" fill="#1E1F2A"></path><path d="M82 12.19c-1.612-2.799-6.447-2.132-6.447 1.796 0 3.929 6.447 6.36 6.447 6.36s6.447-2.431 6.447-6.36c0-3.928-4.834-4.595-6.447-1.797z" fill="#FF7930"></path></g><defs><clipPath id="LogoHorizontalBlackIcon_svg__clip0_269_14950"><path fill="#fff" d="M0 0h200v64.734H0z"></path></clipPath></defs></svg>