<svg viewBox="0 0 104 36" fill="none" xmlns="http://www.w3.org/2000/svg" class="block h-[26px] w-[80px] sm:block"><g clip-path="url(#HevteeLogo_svg__clip0_5736_38631)"><path d="M17.788 23.78l2.105 6.066h1.989v-9.948l-3.465 2.12a1.492 1.492 0 00-.63 1.762z" fill="#fff"></path><path d="M28.518 14.994l-2.872-.882c.143-.6.215-1.216.215-1.833V5.9A3.983 3.983 0 0024.497 2.9l-1.972-1.72a1.992 1.992 0 00-1.307-.489H15.91a1.598 1.598 0 00-1.585 1.397l-.298 2.369a.326.326 0 00.283.364l5.394.685-4.924.349a.327.327 0 00-.298.349l.024.343a.783.783 0 00.777.728l4.625.03v.817a1.493 1.493 0 01-1.004 1.411l-3.308 1.144a7.958 7.958 0 00-4.42 3.78l-2.46 4.617a3.197 3.197 0 01-2.819 1.693H.416a.4.4 0 00-.182.756l5.612 2.87a5.968 5.968 0 005.343.047l.762-.373v5.777h1.99l3.302-8.375 4.178-2.046a7.957 7.957 0 003.399-3.182l-1.239-.497h3.104v.818h2.364v-.871a.729.729 0 00-.53-.697z" fill="#fff"></path><path d="M20.003 1.227C19.61.67 18.92.267 17.97 0l-.127.22c.225.13.235.228.11.449-.252.437-.434 1.064.313 1.492.569.328 1.139.163 1.667-.637a.71.71 0 01.545.315c-.429.856-.287 1.434.28 1.762.746.431 1.201-.04 1.452-.476.127-.22.216-.257.447-.127l.127-.22c-.706-.69-1.4-1.087-2.077-1.148a1.007 1.007 0 00-.705-.403zM30.75 19.259h-.911v-3.512h-.807v3.512h-2.365v-3.512h-.807v3.512h-.912a1.077 1.077 0 00-1.077 1.077v6.444a1.078 1.078 0 001.077 1.077h5.802a1.077 1.077 0 001.078-1.077v-6.444a1.077 1.077 0 00-1.078-1.077zM26.088 28.321h-.458c-.298 0-.526.34-.526.763 0 .422.228.76.526.76h.46c.298 0 .526-.342.526-.763s-.24-.76-.528-.76zM30.726 28.321h-.607c-.15 0-.28.34-.28.763 0 .422.125.762.28.762h.607c.15 0 .28-.341.28-.762s-.125-.763-.28-.763zM45.324 13.749H39.96v16.098h5.365V13.749z" fill="#FF8C52"></path><path d="M60.604 29.68a19.981 19.981 0 01-5.034.663c-4.006 0-6.224-2.417-6.224-6.823V8.384h5.37v5.372h4.72v4.802h-4.727v4.439c0 1.689.763 2.55 2.286 2.55a26.67 26.67 0 003.112-.266l.497 4.4zM68.818 29.843h-5.37V14.378a61.484 61.484 0 0110.86-1.026v5.2c-1.854 0-3.674.066-5.496.199l.006 11.092zM82.36 13.749h-5.366v16.098h5.365V13.749zM79.581 11.401a3.017 3.017 0 100-6.034 3.017 3.017 0 000 6.034zM96.185 30.112a7.652 7.652 0 005.529-2.252c1.523-1.492 2.286-3.544 2.286-6.127-.166-5.168-3.147-8.447-8.046-8.447-2.387 0-5.564.264-9.571.794v21.136h5.37v-5.267c1.154.096 2.643.163 4.432.163zM91.748 17.79c1.258-.099 2.351-.166 3.282-.166 2.55 0 3.808 1.657 3.808 4.207 0 2.22-1.492 3.88-3.61 3.88a23.05 23.05 0 01-3.476-.233l-.004-7.688z" fill="#fff"></path><path d="M42.64 6.63c-.839-1.523-3.353-1.16-3.353.977s3.352 3.46 3.352 3.46 3.353-1.323 3.353-3.46-2.514-2.5-3.352-.977z" fill="#FF8C52"></path></g><defs><clipPath id="HevteeLogo_svg__clip0_5736_38631"><path fill="#fff" d="M0 0h104v35.213H0z"></path></clipPath></defs></svg>